<svg xmlns="http://www.w3.org/2000/svg" width="128" height="128" viewBox="0 0 128 128">
<title>Hello Kugou chained to HKT</title>
<rect width="128" height="128" rx="24" fill="none"/>
<svg x="8" y="8" width="86" height="86" viewBox="0 0 128 128" preserveAspectRatio="xMidYMid meet"><svg xmlns="http://www.w3.org/2000/svg" width="128" height="128" viewBox="0 0 128 128"><path fill="#546E7A" d="M46.91 39.43c-.3-13.21-2.51-15.82-14.35-23.5c-5.54-3.6-6.02-7.02-7.47-7.37c-.85-.21-1.66.44-1.64 1.29l.97 42.2a.913.913 0 0 1-1.04.93c-4.8-.72-10.6 1.43-15.02 6.06C2.01 65.69.9 74.96 5.9 79.73s14.2 3.24 20.57-3.42c4.06-4.26 5.69-8.98 5.53-14.1l-.8-34.97c-.02-.68.65-1.06 1.3-.87c2.44.71 9.25 2.93 11.43 14.47c.41 2.16 3.06 2.01 2.98-1.41m78.03 7.22c-.72-13.19-3.01-15.73-15.07-23.05c-5.65-3.42-6.24-6.83-7.69-7.14c-.85-.18-1.65.49-1.6 1.34l2.29 42.15c.03.56-.45 1.03-1.01.96c-4.82-.57-10.55 1.76-14.82 6.53c-6.15 6.86-6.97 16.16-1.82 20.77c5.14 4.61 14.3 2.79 20.45-4.06c3.93-4.38 5.41-9.15 5.08-14.27l-1.88-34.92c-.04-.68.62-1.08 1.27-.91c2.46.63 9.34 2.64 11.87 14.11c.47 2.14 3.11 1.91 2.93-1.51M77.5 68.46c.61-13.2-1.42-15.96-12.69-24.44c-5.28-3.97-5.53-7.42-6.94-7.87c-.83-.27-1.69.32-1.73 1.18L54.21 79.5c-.03.56-.55.98-1.1.85c-4.74-1.05-10.67.7-15.4 5.01c-6.81 6.21-8.55 15.38-3.89 20.48s13.95 4.21 20.75-2c4.35-3.97 6.3-8.57 6.48-13.69l1.62-34.93c.03-.68.72-1.01 1.36-.77c2.38.88 9.03 3.56 10.4 15.22c.26 2.18 2.92 2.22 3.07-1.21"/></svg></svg>
<circle cx="96" cy="96" r="27" fill="#fff" stroke="rgba(15,23,42,.18)" stroke-width="2"/><svg x="76" y="76" width="40" height="40" viewBox="0 0 128 128" preserveAspectRatio="xMidYMid meet"><svg xmlns="http://www.w3.org/2000/svg" width="128" height="128" viewBox="0 0 512 512"><mask id="SVGuywqVbel"><circle cx="256" cy="256" r="256" fill="#fff"/></mask><g mask="url(#SVGuywqVbel)"><path fill="#d80027" d="M0 0h512v512H0z"/><path fill="#eee" d="M282.4 193.7c-5.8 24.2-16.1 19.6-21.2 40.7a55.7 55.7 0 0 1 26-108.3c-10.1 42.2.4 46-4.8 67.6M205 211.6c21.2 13 13.6 21.4 32.1 32.8a55.7 55.7 0 0 1-94.9-58.2c37 22.7 43.8 13.8 62.8 25.4m-7 79.3c19-16.2 24.7-6.4 41.2-20.4a55.7 55.7 0 0 1-84.7 72.2c33-28.2 26.6-37.4 43.6-51.8zm73.4 31c-9.6-23 1.5-25.3-6.8-45.3a55.7 55.7 0 0 1 42.6 102.8c-16.6-40-27.3-36.9-35.8-57.4zm52.2-60c-24.9 2-23.7-9.3-45.3-7.6a55.7 55.7 0 0 1 111-8.7c-43.3 3.4-43.6 14.5-65.7 16.3"/></g></svg></svg>
<circle cx="102" cy="26" r="20.5" fill="#fff" stroke="rgba(15,23,42,.18)" stroke-width="2"/><svg x="88" y="12" width="28" height="28" viewBox="0 0 128 128" preserveAspectRatio="xMidYMid meet"><svg xmlns="http://www.w3.org/2000/svg" width="128" height="128" viewBox="0 0 36 36"><path fill="#c6d5db" d="M33 34v2h-3.021v-2c0-1.657-1.353-3-3.021-3v-3C30.295 28 33 30.687 33 34"/><path fill="#e1e8ed" d="M27.545 30c-.172 0-.337.026-.503.051v.957c1.628.045 2.937 1.363 2.937 2.992v2h1.091v-2.5c0-1.933-1.578-3.5-3.525-3.5M21 34v2h3.021v-2c0-1.657 1.353-3 3.021-3v-3C23.705 28 21 30.687 21 34"/><path fill="#c6d5db" d="M26.538 30c.172 0 .337.026.503.051v.957c-1.628.045-2.937 1.363-2.937 2.992v2h-1.091v-2.5c.001-1.933 1.579-3.5 3.525-3.5M33 2V0h-3.021v2c0 1.657-1.353 3-3.021 3v3C30.294 8 33 5.313 33 2"/><path fill="#e1e8ed" d="M27.545 6c-.172 0-.337-.026-.503-.051v-.957C28.67 4.946 29.979 3.629 29.979 2V0h1.091v2.5c0 1.933-1.579 3.5-3.525 3.5M21 2V0h3.021v2c0 1.657 1.353 3 3.021 3v3C23.705 8 21 5.313 21 2"/><path fill="#c6d5db" d="M26.538 6c.172 0 .337-.026.503-.051v-.957C25.414 4.946 24.105 3.629 24.105 2V0h-1.091v2.5c0 1.933 1.578 3.5 3.524 3.5m.42 4v3c1.668 0 3.021 1.343 3.021 3v4c0 1.657-1.353 3-3.021 3v3C30.295 26 33 23.313 33 20v-4c0-3.313-2.705-6-6.042-6"/><path fill="#e1e8ed" d="M27.545 12c-.172 0-.337.026-.504.051v.957c1.628.045 2.937 1.363 2.937 2.992v4c0 1.629-1.309 2.946-2.937 2.992v.957c.167.025.332.051.504.051c1.946 0 3.524-1.567 3.524-3.5v-5c.001-1.933-1.577-3.5-3.524-3.5"/><path fill="#e1e8ed" d="M24.021 16c0-1.657 1.353-3 3.021-3v-3C23.705 10 21 12.687 21 16v4c0 3.313 2.705 6 6.042 6v-3c-1.668 0-3.021-1.343-3.021-3z"/><path fill="#c6d5db" d="M26.538 12c-1.946 0-3.524 1.567-3.524 3.5v5c0 1.933 1.578 3.5 3.524 3.5c.172 0 .337-.026.503-.051v-.957c-1.628-.045-2.937-1.363-2.937-2.992v-4c0-1.629 1.309-2.946 2.937-2.992v-.957c-.165-.025-.33-.051-.503-.051m-17.58 7v3c1.668 0 3.021 1.343 3.021 3v4c0 1.657-1.353 3-3.021 3v3C12.295 35 15 32.313 15 29v-4c0-3.313-2.705-6-6.042-6"/><path fill="#e1e8ed" d="M9.545 21c-.172 0-.337.026-.504.051v.957c1.628.045 2.937 1.363 2.937 2.992v4c0 1.629-1.309 2.946-2.937 2.992v.957c.167.025.332.051.504.051c1.946 0 3.524-1.567 3.524-3.5v-5c.001-1.933-1.577-3.5-3.524-3.5"/><path fill="#e1e8ed" d="M6.021 25c0-1.657 1.353-3 3.021-3v-3C5.705 19 3 21.687 3 25v4c0 3.313 2.705 6 6.042 6v-3c-1.668 0-3.021-1.343-3.021-3z"/><path fill="#c6d5db" d="M8.538 21c-1.946 0-3.524 1.567-3.524 3.5v5c0 1.933 1.578 3.5 3.524 3.5c.172 0 .337-.026.503-.051v-.957C7.414 31.946 6.105 30.629 6.105 29v-4c0-1.629 1.309-2.946 2.937-2.992v-.957c-.166-.025-.331-.051-.504-.051m.42-20v3c1.668 0 3.021 1.343 3.021 3v4c0 1.657-1.353 3-3.021 3v3C12.295 17 15 14.313 15 11V7c0-3.313-2.705-6-6.042-6"/><path fill="#e1e8ed" d="M9.545 3c-.172 0-.337.026-.503.051v.957c1.628.046 2.937 1.363 2.937 2.992v4c0 1.629-1.309 2.946-2.937 2.992v.957c.166.025.331.051.503.051c1.946 0 3.524-1.567 3.524-3.5v-5C13.07 4.567 11.492 3 9.545 3M6.021 7c0-1.657 1.353-3 3.021-3V1C5.705 1 3 3.687 3 7v4c0 3.313 2.705 6 6.042 6v-3c-1.668 0-3.021-1.343-3.021-3z"/><path fill="#c6d5db" d="M8.538 3C6.592 3 5.014 4.567 5.014 6.5v5c0 1.933 1.578 3.5 3.524 3.5c.172 0 .337-.026.503-.051v-.957C7.414 13.946 6.105 12.629 6.105 11V7c0-1.629 1.309-2.946 2.937-2.992v-.957C8.876 3.026 8.711 3 8.538 3M29 33a2 2 0 0 1-4 0V21a2 2 0 0 1 4 0z"/><path fill="#edf1f4" d="M25 21v12a2 2 0 0 0 2 2V19a2 2 0 0 0-2 2"/><path fill="#c6d5db" d="M29 15a2 2 0 0 1-4 0V3a2 2 0 0 1 4 0z"/><path fill="#edf1f4" d="M25 3v12a2 2 0 0 0 2 2V1a2 2 0 0 0-2 2"/><path fill="#c6d5db" d="M11 36H7v-6a2 2 0 0 1 4 0z"/><path fill="#edf1f4" d="M9 28a2 2 0 0 0-2 2v6h2z"/><path fill="#c6d5db" d="M11 24a2 2 0 0 1-4 0V12a2 2 0 0 1 4 0z"/><path fill="#edf1f4" d="M7 12v12a2 2 0 0 0 2 2V10a2 2 0 0 0-2 2"/><path fill="#c6d5db" d="M11 0H7v6a2 2 0 0 0 4 0z"/><path fill="#edf1f4" d="M9 8a2 2 0 0 1-2-2V0h2z"/></svg></svg>
</svg>