<svg xmlns="http://www.w3.org/2000/svg" width="128" height="128" viewBox="0 0 128 128">
<title>Telegram self-hosted</title>
<rect width="128" height="128" rx="24" fill="none"/>
<svg x="8" y="8" width="86" height="86" viewBox="0 0 128 128" preserveAspectRatio="xMidYMid meet"><svg xmlns="http://www.w3.org/2000/svg" width="128" height="128" viewBox="0 0 256 256"><defs><linearGradient id="SVG6DaOZcwt" x1="50%" x2="50%" y1="0%" y2="100%"><stop offset="0%" stop-color="#2aabee"/><stop offset="100%" stop-color="#229ed9"/></linearGradient></defs><path fill="url(#SVG6DaOZcwt)" d="M128 0C94.06 0 61.48 13.494 37.5 37.49A128.04 128.04 0 0 0 0 128c0 33.934 13.5 66.514 37.5 90.51C61.48 242.506 94.06 256 128 256s66.52-13.494 90.5-37.49c24-23.996 37.5-56.576 37.5-90.51s-13.5-66.514-37.5-90.51C194.52 13.494 161.94 0 128 0"/><path fill="#fff" d="M57.94 126.648q55.98-24.384 74.64-32.152c35.56-14.786 42.94-17.354 47.76-17.441c1.06-.017 3.42.245 4.96 1.49c1.28 1.05 1.64 2.47 1.82 3.467c.16.996.38 3.266.2 5.038c-1.92 20.24-10.26 69.356-14.5 92.026c-1.78 9.592-5.32 12.808-8.74 13.122c-7.44.684-13.08-4.912-20.28-9.63c-11.26-7.386-17.62-11.982-28.56-19.188c-12.64-8.328-4.44-12.906 2.76-20.386c1.88-1.958 34.64-31.748 35.26-34.45c.08-.338.16-1.598-.6-2.262c-.74-.666-1.84-.438-2.64-.258c-1.14.256-19.12 12.152-54 35.686c-5.1 3.508-9.72 5.218-13.88 5.128c-4.56-.098-13.36-2.584-19.9-4.708c-8-2.606-14.38-3.984-13.82-8.41c.28-2.304 3.46-4.662 9.52-7.072"/></svg></svg>
<circle cx="96" cy="96" r="27" fill="#fff" stroke="rgba(15,23,42,.18)" stroke-width="2"/><svg x="76" y="76" width="40" height="40" viewBox="0 0 128 128" preserveAspectRatio="xMidYMid meet"><svg xmlns="http://www.w3.org/2000/svg" width="128" height="128" viewBox="0 0 32 32"><g fill="none"><path fill="#321B41" d="M19.54 8.25c.12 0 .21.1.21.21v2.17h-7.5V8.46c0-.12.1-.21.21-.21zm0-2.25h-7.07A2.46 2.46 0 0 0 10 8.46v4.42h12V8.46C22 7.1 20.9 6 19.54 6"/><path fill="#F8312F" d="M28.44 29.99H3.56c-.86 0-1.56-.7-1.56-1.56V18.005l.991-.457L2 17.004V13.12C2 11.39 3.4 10 5.12 10h21.75c1.73 0 3.12 1.4 3.12 3.12v3.898l-.743.5l.743.487V28.44c.01.85-.69 1.55-1.55 1.55"/><path fill="#CA0B4A" d="M30 17H2v1h28z"/><path fill="#D3D3D3" d="M7 18.03a2 2 0 0 0 2 2c1.1 0 2-.9 1.99-2v-1.35c0-.34-.27-.62-.62-.62H7.62c-.34 0-.62.27-.62.62zm14 0a2 2 0 0 0 2 2c1.1 0 2-.9 1.99-2v-1.35c0-.34-.27-.62-.62-.62h-2.75c-.34 0-.62.27-.62.62zm4.5 5.02h-19c-.28 0-.5.22-.5.5s.22.5.5.5h19c.28 0 .5-.22.5-.5c0-.27-.22-.5-.5-.5m-19 3h19c.28 0 .5.23.5.5c0 .28-.22.5-.5.5h-19c-.28 0-.5-.22-.5-.5s.22-.5.5-.5"/></g></svg></svg>
</svg>